<mxfile host="Electron" modified="2024-05-27T13:12:35.205Z" agent="Mozilla/5.0 (Windows NT 10.0; Win64; x64) AppleWebKit/537.36 (KHTML, like Gecko) draw.io/24.4.0 Chrome/120.0.6099.109 Electron/28.1.0 Safari/537.36" etag="YDLJxyQ3xKcaMK9Rlus5" version="24.4.0" type="device">
  <diagram name="第1頁" id="mdsC-13-rsG4j_Q2rrJr">
    <mxGraphModel dx="1434" dy="844" grid="0" gridSize="10" guides="1" tooltips="1" connect="1" arrows="1" fold="1" page="1" pageScale="1" pageWidth="827" pageHeight="1169" math="0" shadow="0">
      <root>
        <mxCell id="0" />
        <mxCell id="1" parent="0" />
        <mxCell id="5TUSt0neLx_9tLlEdrc9-1" value="題目: 一樣是選擇課程，但是回傳順序" style="rounded=1;whiteSpace=wrap;html=1;" parent="1" vertex="1">
          <mxGeometry x="23" y="27" width="797" height="60" as="geometry" />
        </mxCell>
        <mxCell id="5TUSt0neLx_9tLlEdrc9-2" value="以Graph來看，這題是要你回傳Path回去。" style="rounded=1;whiteSpace=wrap;html=1;" parent="1" vertex="1">
          <mxGeometry x="242" y="103" width="343" height="60" as="geometry" />
        </mxCell>
        <mxCell id="9lKOfILD6mfGj5aQw4j3-1" value="Build Graph: Linked List" style="rounded=1;whiteSpace=wrap;html=1;" vertex="1" parent="1">
          <mxGeometry x="240" y="190" width="348" height="60" as="geometry" />
        </mxCell>
        <mxCell id="9lKOfILD6mfGj5aQw4j3-2" value="Traversal Graph: dfs 用recursive實現" style="rounded=1;whiteSpace=wrap;html=1;" vertex="1" parent="1">
          <mxGeometry x="240" y="282" width="348" height="60" as="geometry" />
        </mxCell>
        <mxCell id="9lKOfILD6mfGj5aQw4j3-3" value="dfs傳遞陣列" style="rounded=1;whiteSpace=wrap;html=1;" vertex="1" parent="1">
          <mxGeometry x="122" y="394" width="120" height="60" as="geometry" />
        </mxCell>
        <mxCell id="9lKOfILD6mfGj5aQw4j3-4" value="dfs傳遞無陣列" style="rounded=1;whiteSpace=wrap;html=1;" vertex="1" parent="1">
          <mxGeometry x="585" y="394" width="120" height="60" as="geometry" />
        </mxCell>
        <mxCell id="9lKOfILD6mfGj5aQw4j3-5" value="" style="shape=image;verticalLabelPosition=bottom;labelBackgroundColor=default;verticalAlign=top;aspect=fixed;imageAspect=0;image=data:image/png,iVBORw0KGgoAAAANSUhEUgAAAVwAAAEjCAYAAAB+Yrk4AAAAAXNSR0IArs4c6QAAAARnQU1BAACxjwv8YQUAAAAJcEhZcwAADsMAAA7DAcdvqGQAADXiSURBVHhe7Z0NeFXVme9fxAp+RVGDolCUAEpUFFAgZCz4UcAPkH5QO86BmTvInYFUp+jtyPi0InYei3dG4rSCdyrcTuGUq1Itij6FVEeiDcGPgqJGBWOlpKJGocZPrNi7f+vslewcTpKT5JxNwP+PZ5F91l5r7bXX2fu/3vWutc/u9uGHH/7FhBBC5J2Dwr9CCCHyjARXCCFiQoIrhBAxIcEVQoiYkOAKIURMSHCFECImJLhCCBETElwhhIgJCa4QQsSEBFcIIWJCgiuEEDEhwRVCiJiQ4AohRExIcIUQIiYkuEIIERMSXCGEiAkJrhBCxIQEVwghYiJvr9ipq6uz+++/3wW2+/bt6+JHjRplX//6191fIYT4IpFzwUVc586daxs2bHCfvdDy18cBn5PJZON+IYQ40MmpS+HJJ5+0cePGOWEdPXq0/eIXv7B169a5gLi++uqrbpt9CHMikXB5DjxqLfkPY2zE5Pm2riGMEkJ84cmZ4CKgf/M3f+O2r7nmGiew3m1w33332Y9//GO37S1b0pDn+uuvd3/bpsLmDxpkg9LCiPO/ZWW3rbba3WEyIYToouTMpYC1imWLVZvun8XqBazbKAgxgovFiwi3DoJbZsmzx1tiaO8wbre9vWmdVTxfbwVDZtsdv5pjJd3DXTHQULXUbvrZSjvqW2ts3vgwUgghWiAnFi5uAe9GaM9k2De+8Q2Xh7xZuxaKL7d5P5gXhlts0f2P2QPXlZi9tNj+7y+ysZRzR/1Llba6sjb8JIQQrZMTwWUlAixYsMD9bQ8+jy+j/fSw4pkJmxBsrautSUUJIUQXJGcWLnRkxYHP06nJs+7Ibjqhz3deRfg5SqZ9tbZ0WhA3banV7qmzitvK7PIxKT/xmAkzbf6vI9bzlqU2PYifeGu1+5gsS6UbNGh+UDKEZTV+hkj5u2ts5fen2/kjSTPGLv9e0mqcD7rBNi27waafP8KVN+L86c2PG6W+2pLfn2kTwzriy752SbXV7wn3CyG6HDkRXCa9cA20RUuTY9nkbZW6t42S+x5+ZOpzp2iwdTeX2aItvW3ydQvtluun2sD311nymqtsQVWY5IRx9vflC23eFcXu47h/XGgLg88LyydbKqY16iz5D2W22sba7Bvn2ewLCq1u1Xyb9v2VVr3kO3bVL+pt2MybbOH82Tb8kEBUo8f17Ao6jMR0K6/abcP//pbguPNsxjk9bcOt023azRXBGQghuiI5W6XQGjzogNgyseZXK0RhX3YrFTKwp94q7kraul4llphSEkZ2gg2LbaWV2fL/DETsG5Ns6lW32LLFs21YYKGuXLU6JWYFRTbusklWcvJRLkvfMyfZpODzpMuGWZs2/oak1Y5eZMv+dYZNvSxhc/5zud00pcAaVgWW7U+Ps5vuvsvmXBmUdeUcu+vW8LgVUUs8EOzv/4sle8+x5WuW2S1XTQ2Om7DZ/7bMllxXYrUrfmSL0wVaCNElyIngYqG2JpgsAbv11lvdNoLLyoQo5M3aHVHzgM3/4fwwXGvTL5poZb/pHQjOHTZjcJimU0yysuvGW0H4yXH2OCsZEti+ddudJd05AhG/MmoHF9jY0rFuq/jKaTapl9tM4Y/72vZAdkOef9AeDPQ3MW22Faf5UYqnjLfxQQ03Pi9fthBdkZwI7kknneREszU/LCsS/PpbloN5gfZ5sl7d8GyFJZclw7DatvefYcseWWZzxjaTyI5zzkAr2quoAivAmH2mvvOCm6H8gsNSlvLppw5zf5sIjxuh/vkXbVNgZzf5jSPhvJTPeNOOzncLQojckxPBxWUAP/nJT9zflsCKRXB54sxbtD6PL6NNrlxkW7duta0vv2BrFky1gppy+87spVaTq8mig3tkmIDLIa2U3yOLNcQNH70f/F9sU3/g/cYZwqS2PclCiPjJieBinfr1tFiv2ULajqzfdXTvYUXfuMUWzioxq1psC372xRhGp0S5znr09X7jDOGc9q8WEULkn5xNmrGeFqsVizXTxFg6/ikzuPrqq93fjlD0P+bZ7FKz6p8usKUvhZGOI61H/+DPtgx+1y0Rn2gnyMYizTV9BxdbX2uwjZs3hTFCiP2FnAkuYusfz0VweZw3k08X3y2rFRBb8mR6FLh9FNmM62dYya5qW3zr0oiQnm6n4xKtqrQHmwlxg1UsS1pqBW3n6HtSkfv73kcxLsQaPdYmDDCrWVGe1sEEsGLjZytzMLEnhMgHORNc8KLrVy3wYzYILwGRHThwYOOvifm0nRPbkCGzbU7ZMGuoWmzzf+Ylt8DGXpwI5LjaymdMtxuWrLTV9y21G6ZNtIXdx1lOfvqguMjGBX9W3/kvtvi+1Zb84WJr/msReaB7ic2+LmHFwXkt+NvLbeYPl9rKh4JjLwpXbPx3g+l3fITomuRUcMELKT9Uw8oEPiO+XmSZNPM/28jnXDHs6jk2Y0CDVd+50JKhiVdwwTxb8uOEjTvyVVt56w127W0rrX7wTbbkxhLzP3/TKfombF5QfsmnG6x87rW2OBjl53XCLaRg/Dy79+6Flhhq9urqBXbDnGut/Je11qN0ji1bOCPoZIQQXZG8vfFBCCFEc3Ju4QohhMiMBFcIIWJCgiuEEDEhwRVCiJiQ4AohRExIcIUQIiYkuEIIERMSXCGEiAkJrhBCxIQEVwghYkKCK4QQMSHBFUKImJDgCiFETEhwhRAiJiS4QggRExJcIYSICQmuEELEhARXCCFiQoIrhBAxIcEVQoiYkOAKIURMSHCFECImJLhCCBETElwhhIgJCa4QQsSEBFcIIWJCgiuEEDEhwRVCiJiQ4AohRExIcIUQIia6ffjhh38JtztBhc0fVGbJ8FM2lFy/xpZdVRR+ysDuWqtYssgW/Xy11Vy8yLbOHx/uEEKI/ZN9Z+F27xFuNGd33SZbedtMu/y8iVZ2eyC2u8IdQgixn5MjC7fGVv5wZfB/KzTU2tpV1VbPdq9JtnDtQpvUy+1x1D8038pue9A21TWEMRGulIUrhNj/yZHgtk31/55o0++qdduZ3Am1S6bbxFurUx8KS2zSsPdsdUUo4RJcIcQBQDwuhbqkJX+ZElvrn7DEtzL5bntY0dhJNmfBvbb+sWVWNuyoMF4IIQ4MYhHc6hVJqwh9sSXfTtj4gtR2lKKr7rI1Sxba7G8Ms8LM7l0hhNivyb9LIbBuy74+PyW4gXW76P55GQU3nWYuhna7FHbY2tvvtCortVnfKbbX/t8v7dHaXfbZ52ZH9B9rf/23F1q/gz+wLf+9yh5ev8V2fRpkOaSXFV+csG+PKEwV4flgu1WtXmWVtfX2CekO6mm9+oyyb/5DUEYqhRBCZEXeLdyaBx5stG6HfW1qVmKbO+rt0cU/s6es2C68ZKwN7d3TPthWaXf9vMq2rPmZJTfssn5jLrVLxw21woN2BXW9y375UpgVPtlsyR/fZWtf+cwKzx5rl142wUpPPdI+3rEjNfknhBDtIL+C27Dalvx8U/hhnE2+vDjcjomdW6x+4EybMy0QypEX2je/c41N6B/Eb1sbiG1Pm3DN1fbNC0bZqAu+aVdfMcKOsE9s8zMbU3kDPtn4pG35xGzApDk287ILbdTIUpvw11fbDddOscFhGiGEyJa8Cm7dqgdtdWjdFkyZbJP7prbjo5+NvKBPuA1H2IghKUdAz+EXWukRbjNF0Zl26mHB33frbUcqppE/f/xBuBVScERQkhBCtI88Cm6NPbh6Xbjd16ZeNsli9SbA0SfagJ7hdkjPQw91f088aYD728Sh1jM97dARNjiI2/7Ij+0n91XZazs/C/cIIUT7yZ/gPr/O1j0bbg+ZbBPGhttxctDB4cbeHJzNmR8x3BLfSVhpv4Ot/rm19l+332y33PFL2/hOuF8IIdpB3gR306NrzXtviy8YZ8PC7f2OgsE2YcY/283/6+9swlmFZu9stlV33GmVO8P9QgiRJXkS3Gpb+5B/0LfYxo3bb+W2iYIBVvqNq+2aSQPs4M932OZntE5BCNE+8iO4z26w6m3hdv8SG312uL2f8UnDB5butT3i6F6Go+LgQ1p2VwghRCbyIri1z2xq/CGbgtLhVhJu72/sWn+X3fyv5XbXQ4/ak089aVVr7raf3PM7+6TnYBt1TuSXd4QQIgvyILj1Vr0pfEIsYPSp+687odeg4Ta44GPb8UylPfzQw7b2mdfM+o11E2nDtS5MCNFO8vBo7zqbP3KmJd3622E258F7bfYQt6NddO7RXiGE6Hrk3sLdUmu14cMOZgNtoB7JEkIIR2y/hyuEEF908rQsTAghRDoSXCGEiAkJrhBCxIQEVwghYkKCK4QQMSHBFUKImJDgCiFETEhwhRAiJiS4QggRExJcIYSICQmuEELEhARXCCFiQoIrhBAxIcEVQoiYkOCKzrEpaTfeeKMLSf+aZpEFGy3Zpdusq9dv/yR3glsx3wYNGrRXmF8R7t8P4a0T7jymLbXaMA7qKhbbtVddbuePTJ3jiPO/ZWW3VVjdnjBBJlpon6Yw3zI1Vf2GxTZzTAvtuK3C5v/d+TYiyD/i/Ok2/9d14Y4mNt3+LRvxvdXWEH7OKYjtr+qtdNbNdvPNN1viAHg5c2fZsaY86HySgVzlkx229vZUJ9c85Pu4orPk2MItsbkPb7WtW1NhzfUllizLp+gGghOITV7K37XaFv206d1sUWqqltqmt3vbsEkJS0wpsYIPN1nF/ymzy+e2Imw9eljxmcV7h74Fqf0XFFlxaitFfbUl537LJk4rt3WZ3si+p9oW/M8yW3f4VLtj7QP2o4vNHrzmWlv8fLgfXlps5SsKbc4/TbLwKDll4wtbzI4ptqF9wgiRkY3LAzFcngcpHDTFdXQ+TBm0xVbdWG5rd4T7syRv9RN7kVeXQtFV82zuaLNk1f5m5jZYxW0LbXUgU5mEauz16+2xB++yhT+YZ/P+bZk99vM57s3EDas22oZUkr0ZO9ceuP+BtLDIpjqV7WszrkwE/6eoW1FmY8YEFut9gV3d0suBKyts5Wsllvin2VYyoNjGX5ewyb022YYnvS1eZ8k7kmazrrWEL1jknT4T5wTil7Dh4ec4GT5tig22XVbzXDsVV8SGfLgZaKgot4X3mE39+4SdHsZF6XFYj3ArZPDAlFgG4niIi8iSqqQlKwKb+IIZlhgbxgXs3h1I8PjZtnDtcpt9ahiZzmd0C0XWz78zrnuR9Y2kbVi10MobEjZ3elEYIw58hlvxoGBwVi/B7ark7p1m+CjLam3uw8tsRuOLIxnyl1nt9Wts2VXNb/yKeYOsbEX4ISCxaKvNa/Zi3lTewEZrIvL23vT8jsb9tbZ02kRbEDE3SzLUISN1SSv7+nzbMHahPTbzbfvOpQusevRcW7N8RiBve7N7V41V3HGT3bSs1k6/fnlwjGaOgVZosNXfO9+uXVVgM5Y8ZnMjgttE03ns1T6uvets3mN3pSzYPUF7lQRtPesxWzalxm6YusQK//1em3N2Knn7YMJklW0JP0GvMbNszsTQd7BjrZXfWRXYUhGOKbVZ351ge3sX8DfeaVXHBsPfac3tPoayq96N5gvT7nQfHM2OC+nHTjsuPtQ7Xy62WVeY3e3S9bLSWXNsQpDA7VsfqXWLdc5Ut4Dw2JZWJ5fWUueXOkahTcHKdT7uaCvC4NS+sI3tazfbhW9F69VU35Zpo02py0X1rq6FQfnpvvXGOn7NbFWu6rfXuWZI59qvxoqD+MJHgnpuDeMbj3ngk1cLt2JeIJiBWM1rJnSISCCWrwUiFvp6ty5K7OXrrV0SSG0gMt4fvPXhuVYSDLWnL0kNmcfPJ36RJYJtxMiliYrtgEB8I3mzsvP21NjS75dbRa+E/eiG1vyeqXNgsuuMkZfbtRuOskT5vXZX1mIb8HzSlq8KrNuzp9rkjGLbBqNLLNF/nSX/Y6XVvFlr1T9J2oM23sZ/tcDW3bHQNo6f0zGxdasOVll9ICqN/sFZpWbr72zy8/WZYHOczzDYRrRI04JwZU9ERCLHLQz3OqhbKCKpNLOs1KrsztvXBrmj1NjdwQjl2y5NVGwRwkjeY8PkGRh+RmA17KyxzdGC36x3Qr/r5c2R4220mkA4Bp+RQS6GJdyxXDs1+lubC8uWX91od9u3w32k3WVVd3Z08itVl16FwQn3GWrFxwTlv5Be0kZ7NBDPXmMutOE5qp/zAUcmTwmzxgQDuDszrXIg/41Wc4ZPG3wPx2yxVXt9hwcmORbcaltwadPMe9mKEpv7gzTLsCIZWGxp8ePn2aIrzZLLm1YDFF21rLlFNzgYdgdpqrdH1wtkotbqsAhLI5mDvM1FPxMNVnHztbagqtAS182x8S35Th0FVjQ6YYnpU2386CIr3LLOFgd5/2VFTbi/bdatXmlci+MmTW4+WZYtBeNtbvk8K64tt8vPm2jXPX6czV78I0tsW2wLfhu078yBtu626eFKijF2+feSVtPaKgpHIHqVW/a2KhHYrwUCtLWy3RMy2bPD6gPLtplwBcdNNNYjVTeEocli62MTrii1Xjur7NHojR2UU3xF8w5gR30glYOKI2IS5J3WSicxrHgvfyiThL0GDQ6OV98kDptqgpHAYCvu6AqN4HyibT38ouB8ghJr2r0ciw4rGJUEHeC3XXnB+Y3N8J25+vay4rNaPPPmtFW/wGqt3Lq3NYsvGyHfUrm3kHJ9NfsOqWd653aAktdVClsfHmuVCPC8JtO1oiqwXK9MRNwOKYr6lZhtqGsU3BRNlmRKwIOo17anpUmnyPoyUVc23Zamj5ZaoWbJdwLBrLeS6xcGQt/WnH6hjSubZ/N+cIstWr7G1j9yi00qqLHV825qvkqgJYLhf+UqlnBNsslTOj6j1ePMhC28f71r6/X3L7QZw2qtPLAUhn93jvW77zqbGVh5k8vX2Jr/mmpHVc63a2/PvOqikR2brWZnCzdjBgHKLX2sEIvsVy3Msod1K70ozZLsU+is4Pq3opmCuLRT6FMY9KBbV1n5mmzrn+4PxXoM2uai4qD0JsHZ8VZ9YOUXtizcbbCXZZzxfFogOJ+mJWHh6CA60mih07BBY9twWTTRVv12PFdju1pYqZJxlJBJ7E8oDGJ3Wf2b4ecDmPxOmgWW5bJFwaB/RTIUv1rb/lrwZ0VZo4j6MPHW5mKAj3bQoIlWOXZNo4BjBbdNkc1YTtoma9u7IVqmwlYGx28I/lXfenlTvfDfsnvDApvI50jH0Yz+U23qeIQzukqgZRp+vcYeZGw65Xwbm8P1WjV3lVvy5Gtt7sV1tvbRauv7zcBSLS2yotI5Nuubfa22coOzqlskHDLvGwJL57t+yJoSkWbi6OrWtK8pNPc1OzIIoFs9EFjpu3CNkC+LIawTjK01qeEzlqETlpQQp4bqO2zzy8Hw/LShHRbcTtHoBghDmj+3sdNodIG04v7oIG7kILIm/6sUTu7rlkylKLJ+A4I/TG55K7hZmGfOEVAxP+WOCKzlrCa6MpDy8QYhEPzqWye2LJaOQwJrMcMa2SF9U37cXn1Tnw9veQ1Cz0OyV84NT1cG0h7UcdjoVvzE7aQuaYuWmc2eie+5zuqfMet3TO9wp1nvY/qZvdRgmZb0NuIsjVwTWK6t+ErTGT4tFA8vjt5v7OrG0DUiMJHQzAXSEqHP8uabp9jgnVV2Z1sPCrhjpqxZ504IhdUJ8bv1tqO1EUEXwbkAvJXZWfdHBtzIQWRN/gX39bqUlRjiXAcrqjM+VdU6FVadviohG8bPcw9gtO6KGGdz91ojG4R/D5eFncrQPfj8z+PMtq2z1RvSZGvbSlv+EP7bYTZ6VFsdxDqr/jVyW2LDS5tNCXWCBlv9H+X2/vS5oaum0AqGmL33QdNjGG/v3G42um9zf3o6brjYgtugvb6/dBCocDNFytpqkUAcZ40Jbmafr7W6tZvhlpiFL7LeWl1BFU481b+1NuVO8OeOECNizwVWd1d/8MOdA+22MfTPX9hsUqyz9Dk+uIZb8L/qwZi9ya/gbllq08ua+2yLrkpYwpJWlva4LFZt4yoFZxVXW+XjTSnciodwu4nQX9vswYoKm9/Mmq21dZWB5A/o17rYZMvuWls5baKdP7XMbvjhfLuh7FvB9g22eluBFU+/yhJnhuka1tn8ySNs0JiZloyOeZ/dZBsZhQ0ZZsP7p6I6S8OvF9jC1xM2Z6affhtm4y4YZjUryq28qtZqq8rtzl822PiLJ7TRBoEQhZZls+E8y3l+xc367ax9f1FSvrwquztS5sbl6a6AjZZs9rRTarhux3r3wHC7MBBg6tZ85nuHrV3etntg4/Lm1qzzPQYSnu7rbU4fG3pacMyXa6w+KhxexF6uz8qdkPIfh66J2PHnUNmiNd6p+gUdY8oN1Nz3zqqQVUympU1eftHJseA2X6WAD7SIJVvh2tkU423e1jU210K/qA/L+1rCJwt9v84VEO6vLs3kwy2yGdPwEYc+YS+0zXzE4RKxZnXoBEUTLPGPo61fwyZbuSxpKyvqrMep4212+b127w/Gt+kiqK951dxahlMH5qYDCIS9/PaNNuG7c2xY9zAuYNjVC23h+E/swTkTbeL31lqPK26zH12ZxQQdw26/DMz7ScOlWFkN2zMRWquN/tMgsCzILUeKkmkSKOKX9H5YlipF09Wfkc1NzWOvTfka18qGe1uiz1nFgTUbCH8zYQ1FLIgvPL7tI/eZODYYyPvjx/97B+74QV1bssY7Wz/cQH4ZWPP2bWs98ReP3D34IIToojQ9xKAfGNq35N+HK4TYp+xYUxnYr7mdLBMdQ4IrxAFN5MmyMEbsO+RSEOKApOn3MPZ6clDsMyS4QggRE3IpCCFETEhwhRAiJiS4QggRExJcIYSICQmuEELEhARXCCFiQoIrhBAxIcEVQoiYkOAKIURMSHCFECImJLhCCBETElwhhIgJCa4QQsSEBFcIIWJCgiuEEDEhwRVCiJiQ4AohREx027Nnz1+CYJ9//rkLf/mLXgAhhBD5oFsgsFJYIYSIAbkUhBAiJiS4QggRExJcIYSICQmuEELEhARXCCFiQoIrhBAxIcEVQoiYkOAKIURMSHCFECImJLhCCBETElwhhIgJCa4QQsSEBFcIIWJCgiuEEDEhwRVCiJiQ4AohRExIcIUQIiYkuEIIERMSXCGEiAkJrhBCxIQEVwghYkKCK4QQMSHBFUKImJDgCiFETEhwhRAiJiS4QggRExJcIYSICQmuEELEhARXCCFiQoIrhBAxIcEVQoiYkOAKIURMSHCFECImJLhCCBETElwhhIgJCa4QQsSEBFcIIWJCgiuEEDEhwRVCiJiQ4AohRExIcIUQIibyJrirVq2yt956y23/5je/cQGIY98HH3zgPgshxBeFvAguooqgesH98MMPXQC/z38WQogvCt3+EhBu54TXXnvNNm/e7ET1iCOOsMMPP9yJrN9GaNl3/PHHW1FRkQ0YMCDMKYQQBzY5FVzEdv369U5c28K7FL761a868W2Ljz76yB5//HF755137Nxzz7VTTz013NMy1Ofpp5+2o446yr7yla/YYYcdFu4RQoj4yYngehcBli3WbCKRCPe0DHnw5SK2Q4cOddZva0IdFdyTTjrJSktL7ZBDDgn37s2nn35qVVVV9sc//tGOO+44Ca4QYp+TEx/uI4884ibFvOvAg6hiZUaD9+v6dHwmL2VkAwL9pz/9yd5+++0wJjPsb2hocNatEEJ0BXIiuFiohKjYIq5YsLgYosELs4c85C0pKQljWqdHjx4uT11dnX3++edhbHOIZ39BQYEdc8wxYawQQuxbut8UEG53mF69ejnLc/v27fbnP//ZTjvtNNu1a5f77MWYCTKEErE94YQTXB5cEPwdM2ZMM7HOBOVu27bNjjzySJfnD3/4gx177LEZ82HdvvTSS25Cjnwff/yx9e/f3770pS+FKcw+++wz27p1qz311FP25JNPum0s4qOPPrqZq6KmpsZ1FAj3G2+8YdXV1S4P54Gg+0lB4givvPKK7d6927kxunfvHpbSxJtvvmnPPPOM/e53v7ONGzfa73//e+cu4bjR+hH36KOP2s6dO9354oumHpwLx3n//fedayUdOpqKigp3bOoghOg65MTCRYSi626jIMQ+ZBJHfL/kpYxsQWgOPvhg55/NBPE9e/Z0goNApYMF/Oyzz9oLL7zg0uAPpkNAqBE1xCydV1991XUgdCbFxcXOXYIIYskjnggmk3mFhYX24osvurKjcEziKisrnSCffvrprqPp3bu3K/uJJ57IeFzyPffcc+44dB6HHnqoqzNCnGlpHedAJ9CnT58wRgjRVciJ4HKDdxS/WsH/zQbEDWFD4LFKo/DZW9FYw5lA4LBW/+qv/spGjhxpp5xyip199tk2evRoJ9BYu1EQQsSO9AMHDrThw4fbWWed5eIRXUSYOCxqyjvxxBNdHaKCiGWL9YuwszKDPKTHlUIgLUKd7iZhpEDc5MmT3WTkGWec4UT6vffes3fffTdMlYIyEFwsf6xvIUTXImc+3ClTpjgrNh2EJ33CLAp5yIsIZctBBx3kRPKTTz6xHTt2hLEpGFLjLsCF0K1btzC2CVYvYAEjyOn1xW2AWCHapIvSr1+/Zq4GrEwEHeGPDu29ZY0V661rBBMXCKskBg8e7OofhfxYpFit6R0P5zJkyJBmAkpaPiPiURBbRBfBF0J0PXIiuAgp/tioReetXuL9hFltba2Li1rE5CENgtweEEaEDUvViyN+T8QUEcQKzgTHI2zZssWSyWSzcPfdd9vrr7/uhByh8yCs6dYyLg2Ek3NhIi8K+6IgvljDlJFpaRrlUF/qny64CGv6sXHN4NeNuhUQdb4HOg0sYCFE1yMngsvKA0QzKhZYj1it+CmjIf1BB/KQl9AeELW+ffs60fFWLoKDdUp8uhXp2bNnjwuDBg1yLoJMgWF7+hrfTNYytBQfhaXOHJMy08XYgxCnCz3gs41OpgHnxjkitli1QDvSFnRCra1PFkLsO3IiuN4l4IXUCy+f8VNGQ6Y05KWM9oJbgHW2DNcRK9wJbVl4CCQB0Tr55JMzBsSsJWHsKBwTSzxdUD1YwYhutmLp/bR0Mli3PBCCqGdauSCE6BrkRHAZ4iKc+HIRUlYdpA/X0wNpgEkkL8LtBesP3ypig0sCCw/fbWuihaiRjyE+IhcH1AfXA8fEbZAOgskEGPXK5HLIBGnpcJhUYwIN1wrWbUuuFCHEvicngutBVHAbeAH1Quxh2y8N4y9psXo7AxNITFSxXhaxQoRaA6FCmOrr6xt9ylGwkhGxXIK1TMfgfccIbBT8zrhFqHt7VhdgyWM1Y+Hz9B35W3KlCCH2PTm9OxFRBBRLF9jGXUA8gW0vsCyF6qzYAgKFkONSQHCysRBZ2sWQ/Pnnn3e/z8AyMYSQBw14GIGhea5BcFlZgcjj83755ZedVb5hwwb3IAP1YW1ueyAPLhQm+pi46+hIQQgRD3kxh/wqBC8A/I1uI77RlQqdBb8lVmu2/ktm/fkxG5ZoYc0ieogvT2exjpaycg2WJ2t1R40a5Y7jV2/gBmGSDmu/vZNdWM50MrgqEN9s3RFCiH1Dzn8PV8QLD1PgTom6coQQXRM5/PZj8N8yWYZbgSCE6NpIcPdjEFtcEviH09fqCiG6HnIp7GewrIyJN9b18hfLlt+AkOAK0fWRhbsfgmWL75YJM36hTGIrxP6BLFwhhIgJWbhCCBETElwhhIgJCa4QQsSEBFcIIWJCgiuEEDEhwRVCiJiQ4AohRExIcIUQIiYkuEIIERMSXCGEiAkJrhBCxIQEVwghYkKCK4QQMSHBFUKImJDgCiFETEhwhRAiJiS4QggRExJcIYSICQmuEELEhARXCCFiQoIrhBAxIcEVQoiYkOAKIURMSHCFECImJLhCCBET3f4SEG7nhbffftteeOEFe//99620tNSOO+64cE92/P73v7ennnrK/vznP7u8X/nKV+ywww4L97ZNTU2Nbdy4MfyUmX79+tmYMWPsS1/6UhjTxKeffmqvvPKK/fGPf7T33nvPxR111FF20kkn2amnnmqHHHKIixNCiLbIi4X72Wef2R/+8Ad79NFHraKiwt54441wT/v45JNPnOAith2lM/3JW2+95er/3HPP2TvvvOPqQWCbOPaRRgghsiGnFu7u3bvt6aefdgKLZRjlyCOPbLeFu2XLFtu0aVOj4HbEwsU6ppyePXvaiSeemNEipbzBgwfbwQcfHMaYffDBB7Z+/XpnoUOfPn2sf//+bnvbtm22Y8cOt927d29nHR9xxBHuc2v4fD169LDi4mL3tzVow5deesk+/vjjZseHl19+2f70pz+Fn1IcdNBBdvTRR9uXv/xld75CiK5FTi3cPXv2OKFCKBie9+3b1wltR2D4/uqrr3bKuo1y+OGH29ChQ+2cc87ZKyB+UbEFLHQvtrgczjvvPBs4cKALbBMHpCFte6Bj2rVrV/ipZXbu3OnEtiW8wB5zzDEu0JmQB5FmdCCE6Frk3KXATX/aaafZ+PHj7dxzz23TisvE559/7vymiMcJJ5zgfKYdAbH2wtOtWzcnUNlCx+FJt4zZJs4TTdsW3bt3d50Rbgk6qJZgH2lI31K92XfKKac465xw9tlnO0sYQSevEKJrkVPBZWh+wQUXOKuxV69eTuQ6wuuvv+58t1jHCEmmyaxs8R4TxKk99YmmJW860bj2nifW9kcffeQmEluCfaRpbzuSnrq1JuZCiH1Dzi3czsIQ/cUXX3TWKdbbscceG+5pP1jKXniwStPdBq2Bv9gLPXWiLA/bfrKMNO1deeFFEX9uJhc6ceyj7PZa94g09UPUhRBdiy4luPh+mQzCf8uQHeu2o1YyILZ+8m779u12zz33WDKZtPvuu88eeeQRq62tdSsqMoH/2bsN8NGyvIxOgMAyN++3JQ1p2wMTWgUFBc4V8eGHH4axTRDHPvyzkI21isjiRmDCEkHHpyuE6Fp0GcFFMDZv3uyEDKvujDPOyNtMOxNRb775plVXV9vjjz+e0QeLdTlq1Cg3SYbF+eyzzzrBJlBPYB9p2uvyoBMpLCx05dbX14exTRDn07QG4s8qjg0bNrjVGHQgiDT1ao+/WggRD13mrsSyRTAQLwSD5VadBcuQcpjEGzlypA0fPtyVHR2mYxGypjaTpcvkE2VksrKJIw9D+I5AHfBRs7SL43iY5GMFA/vbWmqWvkoBHzruDzqE1lY3CCH2DV1CcFmfylImLLaioiL3BFcuQNAQWSbxcE+w/Gv06NF26aWX2llnndVomeIv9UvAPHxet26dm7wDRPuSSy5xgXLIy+TeE088sVfebPAWLC6P6BIx3AIIeVvWLeAHjq5SOPPMM109acfXXnstK1eEECI+9rngRi0yFuyzVjbfw2HKP/30093xAKsy+hABgseyNHzJuDWwjhFtb0ki4oRDDz3UpWGSz/uK2wNWLGXgQuCYCCVL4bBUO7p+GYuXQHvKyhWia7HPBRcr0f9GAf7be++9101s+XD//fc3rinlL5+Jr6ysdALVURDdqGsh6selPt7qRGBZ25oOk2V+dQJpEcr2gpVM+bglEHyOi0hSbqalaNnCigz8w9GVFUKIfU+X8eHua6JLxlgl0NDQ4LYRvkwWN2KJdQoIZkcsXMB1gEBi6ROwqBHhzkBdcFnke6QghGgf+/yORFzwO7YUBg0a1LimlL98Jh6hyjSZlS0M4d99993wU8rf60F8/QoJ/KCZLEWs61wM2XkSDxcADzog8qw7jj7V1l6wlAl0Br5DEEJ0Dfa54LJqwP+mQabARJAXDv7ymXj/+we4ApjcYm0tKx2isPY2028WILZM0vlfMUPkjj/+eLcN0RUCuAr4acZ0KNsv6SI/otlR6DywRr2LIVvoDJjU48d5CM8//7xrA8ritx4645YQQuSe/X7MyWx8XV2dszb5sZuowGI18hOK/EwkYkTaZ555xtasWeOWgmGlInL8ChcPIniwpIljHxNq5Pntb3/r8hNYv0uc/50Gfhs3mr+9cDwEnjLa80toWN5Ys3QKBNoAwWZCsDP1EULkh7z+ADm+TR4sYLKLIXtHfoA8WgZ503+ekRUO/kEErEyOwZNW0NaPjzN0x1ImpPs7ETPyE1ryzyLILGGLY2WFEGL/Z79XiQEDBrhHa3E34J7wYgvE4+/F6kMcwQ/bhwwZYhMnTnRPtGUSS+LYx6+eUUa0XISdY1100UXuF7oktkKIbMj7K3aEEEKkkGkmhBAxIcEVQoiYkOAKIURMSHCFECImJLhCCBETElwhhIgJCa4QQsSEBFcIIWJCgiuEEDEhwRVCiJiQ4AohRExIcIUQIiYkuEIIERMSXCGEiAn9PKPoFP51Rbx4kzdX8DvD0Rdyipbxr4Ti95a7Il29fvsjORNcXnHOmxnS4Q0NX/7yl8NPXRvOoba2tvF1NbzbjLrzRgj/A+ZAk23bts29R4xX+vDmCN4hRrpsXpFDnhdffNHeeustdxzehsG72vgx9UxwrKefftq9hif6xgvehsGrgni/Gi+jHDx4sHsDRfQH0XklEPlLSkoaX4yZK7zY0ja6KVPwItBXXnnFTj75ZPeuutbojKDxne7YsSP81ERRUVGbx80WCW7uyalLAeHgLQqJRMKF4cOHOxFGyPIBgsP7yXJV/ptvvmm7d+924on48Wod3oXG+8uib+5FZJ588kn3zrQTTzzRiR0XJ+nael06NwovveTFlLQXbyFGsPz70dIhnk4gfT9it2nTJvcSzXHjxjmhpV6U76F+5GVfrsUWaH/qxUs0Rcsgwr/73e8aX72fK7huhg0bZqNHj3YBseX7jl4D2ZCv+om9yasPFzFBvBCy/QEuXjqMkSNH2pgxY+y8885zovjee+81Ch7WKVYjVib7CeTBCkD4eYtuS1AOli1DbkSS1/eMGjXKLrnkEieKmeAG4n1uUQsbKAtLnHy9e/d2NxvC598kDLxUk9cJnXDCCWGMyDe8vPPcc8/NmZXZHjgmr39COOmQRddDk2YR0kUNUcVd0K1btzAmZTXyplxEjgAM4Xl/GukRvJYudgQZkWToH30tO2R6pfnbb7/txB0xTX8LL24NhNu7F6i7f5080Mn5Y+mda18c6HQZZfEKfdH16H5TQLjdKbC4uMnxeXoRYHiOhUbPm97jP/XUU/bYY481vnWXnhmfqYfhKq8337BhQ2MarExeSQ7k59XlpGMIFd3P68/ZR/B5Eaf2WB2Ui5uAc8JSx3UAnCfH48JGZD0cm9e1I4TEp4s3bUF5CCsTS1FxzAS+XVwUuCtI/8Ybb7h4//p26ofvljcZI8acM9Y1HQTn+eyzz7q0HbFu6TCwxCmPcyLguoi+cZlz4ficL1Y/aagrE2fp0F5cB7RZdEKNzom3IjOKIK+Pw43jj4ufO5qPdsRvTefV2n7aiPph5fu6p+dtrc6Z6ubbhY6QY/qOjLS0B3F8L1xvfA/kIz3fHS4p0nFMxJDrnZELkJY81De6vzW4DjkWnX60TYljH/GcO37eaF3BtwN/OV4u6pfNNRP9biibNiMddYy284FMXgUXHyPwZltvwXkx5Au6+OKL3TCeLw9fL3+96G7dutWJJ0N2XkOO4HEDcGEgKOzjzblcJOecc45L58V2/fr1TtAo3+fly+bCa42oUOMP5VjUneN4Kxdh5SbHiqAe3jf6+uuvuwuXi8aLYhRuBKxVLl5ucCbBqqurnRBRJhembyOOywWOkOEHpz29X86XTeDGJw1txrG5IXBtcAFTv0yvf28LhqMvvPCCaz/Onc6D88Tn/O677zbevF7osaLxd+PayCRc0Jo4MFqgLNqN75J2pIPBqufYtA3HIR914xqgPrxRmf3EUTfqRRrEgHbhZmcUQb282HJebPu8/gbPVG/Koj6cqxcXrg/alr+0uc9Pu/O90rlxHNqJPIgIdaD+nCffDefly0N0iKcdmDTl3qFMOgT+ttSe0FKbUheuVeL5yzGidQXai7zUhXujs/XL9prx3w3l0jb+e2DUiHb47/BAJqdjTRqOSaxkMukCF+fpp5/eTHyI40uMxvNFMvSld+RiBsSCeA83Sp8+fdyN1BrkxzqMWnbkpfy24ALlQuEmJT/HotNA/D3sZx9CgwVeWVlpFRUVbsVCJreABwGkbiyfwvrkBkWoEFcsA3p+toGe37sSuHEyQdshxsDxmRk/66yzXAeA1YBVjpg/8MADds8997h6ttV2gHBzM0Rnprm5KA/xQ+DzBTc29fcdNtBGXiyoG/v9KAdOOeUU95cbNgrp+K48CCFEX3fP/miaKF5Qov5QtvmOaXtfHn/5TtvqzFuCsrg2vdBQP46LULUXOmXuQTplyqMs2oF283AunAfH8O3aGtnUr73XDIJOHT2IPtc+9TrQyang0ujRVQqlpaVWVVXlhv8ebgyEExGMwpInhNILLrCNUHgBR9TS06TDBUJPi1DSk7YHLiqEnkmPiy66yAXKQhCxaoGeGouaDoNtzodjEodQcENGfb7p0Mtj1Y8dO7bZxBzlYLVw02BdIzTRCzgT5KOcK664wi677DLXQSG8XMCIF+VwPueff7678LGavXhkojXx4Ny4eTsiBNnCMTg+Q+F0fN3o7KJWEO1N58V1EYXvLYoXFzpPL5ZtQTtE/aGcuxcx3w6+rGzEKxPpwse5cT1xjbf2XQFpuM5xuxG43hnRYbECZbFNu/l6cl1wTlwj2dBW/TpyzaSnpXzuJep2oJNTwU0HUUVcsGq5GPiSuDEQTi+iPmzcuDHMlQKRxjLDAvECno2VysWACCHq3tpmGNoRmOHHwuSCil40HIPz+trXvubEDkHjQkTUuNHZnw4iTOCGjVrffKbHx+onMKSmjbByV6xY4ep///33u/YjsE0nlKnTYajHDYBljIDT/liAnAMC7oeHLUFeb2XvC/iu6SCw0hAQlip5ofB1w2r3AkPAz833k07USgZuakYAiLMXKVwGreGFC8uL4/P98n0hGF7EsN4oM/14ceCvQ78sbMSIEXsJP/WNWo+5ru++vmb2N/IquMAXyxcMXCAIEsLpRTQasI5Jj3Ag0nzmBuwILO2iTB4UQMyjVnZ7iFpTrYFvCjFDNDLl4bw4d6yLTJYLlgDWGjcMN3Q0IPy0IYHt9JsKEGncEAgr5SAOpPd1IQ8izfFbgjRYGrmmPTc3IscIgxED9ccqRyx83ehMvMBEQ1ujAaAt8EWSng4Z8fa+8Ux465nOljrwmXOhjmwjusTzOdvrJG6oGyMhzsG7E3JZ33xdMwcqeW8pP4Tx4DrA/9ne4QPpyddeGGbj62zLFcGF6N0GHo6Hf4phFcLnSR++koYbF0sy6l+Mgtgixt5t4MHiwPKkXTgGYsBkXzSwZpebhMA2adKtaIbKlMEkhBcKhsLe+sAS4eZIH2pHiQpMOrQ/Ih5th/ZAPahDlEzH8SAIdMzczORrrW4dAR8iI4v07zIKdaDNuW6whr1QURcCdaGNsSK7MnxndA6MergXoyOszpLPa+ZAJK+CyxCY4VvUZ8sjj8AsfVQAsWoJ4C0irEYPs6CUF8VbzFxIHr5krCKPv1lIl2mo7+FC5OkxJqCoG6smWLaGQCLa0ckVli09/PDDbjUE6Z944glnPTDZhugBE1SPPPKIPfTQQ40XI9YZNyf5mXDjGORFUNiHsHcE2onOguMjUARmxxklYMWxH+uXuNaOgZggRAzpcWl4qB+CjqUUbYdsQaioEx2Nt+75TuhoojDZR8fnYRuhpqOgbggFedKtUs4tXczToSzK95AeEWqtAwK+L64NghdWL8SUidi0ZcFTf8jnhGNrUFfg/kn3yUJn6peva+ZAJafLwmhgJjwQPALbWGNRtwCixxfE8hUEy6flxiIdPSYXMAE/m9/PJBUXBjcsT695K4MbGZcBaehNsTIRZ5+XCS9uVFwMrUG9EGduaG5MLB9uMCYhWKbEcTxcXFycCBr1pkOh/KjlwA1KOb6+nA/1R/TYh+Bww3IMfG++I8oE9fIiQ9tFOw72scIByzpqXbMUiDWy/nFf2oVzoc1agzrSObKkhw6Qc6BDo94sj4vCTUVngqXYlpDTEdEpUC5lUjfqS3tzPI5Lm0bXcdI+dCJeMDgG29TLrwklEOetKL/0iPOP1om64h/3+fw50Z6tQXtRL75/Jpr8dcBfBAxXEG3rydQmnD/fE9cLx6aO7PcGhDdGPMRzXSFU0esuSkvLwjLhj09b0+bp31Vn65ftNdPSd+PjuUc47oGMfi1MiC8AdLp0YPo1t31L3n24Qoh9C1Y3VikjAYntvkWCK8QBjp/jyOVkmegYcikIcYCCGwG/LD5/HqPF1yr2LRJcIYSICbkUhBAiJiS4QggRExJcIYSICQmuEELEhARXCCFiQoIrhBAxIcEVQoiYkOAKIUQsmP1/kVGkQPFAvu0AAAAASUVORK5CYII=;" vertex="1" parent="1">
          <mxGeometry x="569.85" y="483" width="150.29" height="125.67" as="geometry" />
        </mxCell>
        <mxCell id="9lKOfILD6mfGj5aQw4j3-6" value="" style="shape=image;verticalLabelPosition=bottom;labelBackgroundColor=default;verticalAlign=top;aspect=fixed;imageAspect=0;image=data:image/png,iVBORw0KGgoAAAANSUhEUgAAAUMAAAEgCAYAAAAuUxHzAAAAAXNSR0IArs4c6QAAAARnQU1BAACxjwv8YQUAAAAJcEhZcwAADsMAAA7DAcdvqGQAADZVSURBVHhe7Z0NeFXVme9fREWtRlGjonG0RFCjooAKgbaA7QR8FGXGQXudQKcDzIygvYLPXKmPEtE+Dnam0GsL3o5wewdOfdSMHRAdIdUKthD8AhUNFgiVkhY1Kho/sWLv+q2zV7LPyUlyEnJOUvL/Pc9O9sdae6/9sf77fd+1zl69/uQwIYTo4fR67733JIZCiB5Pr48++khiKITo8RwU/RdCiB6NxFAIIRwSQyGEcEgMhRDCITEUQgiHxFAIIRwSQyGEcHRJP8O6ujr7+c9/7ifmi4qK/Pphw4bZX//1X/v/QgiRT/Iqhgjf7NmzbcOGDX45iCD/wzpgOZFING4XQohckzc3+ZlnnrHRo0d70Rs+fLj97Gc/szVr1vgJ4du+fbufZxuiWV5e7vMceNRa4h9H2NAr5tqahmiVEKLLyYsYIm5/+7d/6+e/853vePELrvDDDz9s99xzj58PFiFpyHPzzTf7/21TZXMHDLABadPQMVfbjB+stNq9UTIhhGiBvLjJWHlYhFiD6fFArEXAKoyDSCKGWIoIZOsghjMscUGZlQ86IVq3197atMaqNtdbwdnT7cf/NdNKe0eb8kDDuiV2+08r7eirV1lFWbRSCNFtyblliKsbXOP2NIxcddVVPg95s3aXS660itsqoukuW/jzp2zFTaVmWxbZ//1ZNhZm51G/Za2tXFsbLQkhujs5F0NajGHevHn+f3sIecI+2k8fK5lWbmPd3JramuQqIYTIQF4sQ+hIy3DIs18NKc417hPNNhHFGCuqouU4mbbV2pJJbt2kJVa7r86qfjDDrhyRjEuOGDvN5j4eszq3LrHJbv24u6v9YmJGMt2AAXPdniHaV+MyxPa/t8Yqb51sYy4mzQi78p8TVuNjng22aektNnnMUL+/oWMmpx43Tn21JW6dZuOiMhI7nbW42ur3RduFEM3IuRjSAIK72xYtNZRkk7dV6t4y9lz0paOSy/tFg625Y4Yt3HqCXXHTfLvr5ol2xgdrLPGdqTZvXZTkpNH29wvmW8U1JX5x9D/Nt/luef6CKyy5pjXqLPGPM2yljbLpcyps+iWFVrd8rk26tdKqF19vU39Wb4On3W7z5063IYc6wYsfN7DHiXn5ZFuwbq8N+fu73HErbMqFh9mGuyfbpDuq3BkIITKRl9bk1qCTNUJII0toVY7DtuxalDOwr96q7kvYmr6lVj6hNFq5H2xYZJU2w5b9xAnMVeNt4tS7bOmi6TbYWXaVy1cmhaag2EZfPt5KTz/aZyk6b7yNd8vjLx9sbdrGGxJWO3yhLf3eFJt4ebnN/Mkyu31CgTUsdxbhvx9vtz9wn8281u3r2pl2393RcaviFqwT01u/a4kTZtqyVUvtrqkT3XHLbfq/LrXFN5Va7f3/YovSxVMI4cm5GGLZtSZmdKO5++67/TxiSAtyHPJm7WLXrLC5d86Nplk2+RvjbMYvTnBi8GObMjBKs1+Mtxk3lVlBtOS5YLSVnu1sxrpd3gLdP5zAXhu3Hwts1MhRfq7k2kk2vq+fTRKOu2OXk8SIzY/YI04byydNt5K02EDJhDIrcyXcuFmxUyEykXMxPOWUU7ygtRb3o+U49C+kS00Qz5An61boF6sssTQRTStt12lTbOkTS23mqBT56jgXnmHFzXZVYAUYgc/X778YZth/wRFJC/OcMwf7/01Ex41Rv/lV2+Ts06Y4ZWz6ajJGuWn3/ku2EAciORdD3GD40Y9+5P+3BNYfYsgvUYIlGPKEfbTJtQtt27Zttu21V2zVvIlWULPArp++xGo6q+Hg4D4ZGmM6kVb23yeLPpINH3/g/pbYxNtCnDLDNL7tyKUQPZGciyFWXegviNWXLaTtSP9ET+8+VnzVXTb/ulKzdYts3k97hmuYFMw661MU4pQZpgvb36ovRE8gLw0o9BfE2sPSy9RIkk749QnccMMN/n9HKP52hU0faVb97/NsyZZopeco63Oa+7czQ5xvaywGtx9kY8l1NkUDS6zIuckbX94UrRFCZEtexBAhDD+pQwz5CV6mGCKxQlqVEULyZPr5Xvsotik3T7HSPdW26O4lMZE7x84hBLdurT2SIpINVrU0YckegvtH0SnF/v/7H+exM8vwUTa2v1nN/QvSxN9By/pPKzuhkUeIA5O8iCEEQQyty3y4AVFkQgDPOOOMxq/ahLT7J4QRZ0+3mTMGW4Nzl+f+NMhhgY26tNxJZbUtmDLZbllcaSsfXmK3TBpn83uPtk75KXFJsY12/1be+11b9PBKS9y5yFJ/fZ0Depfa9JvKrcSd17xvXWnT7lxilY+6Yy+MWtZ/2WD6ZoUQmcmbGEIQOT7KQAsyywhjEEAaUMKnvVjuLAbfMNOm9G+w6nvnWyIyjQouqbDF95Tb6KO2W+Xdt9isH1Ra/cDbbfGcUgufetgvisqtwu2/9LMNtmD2LFvkPNecNr5EFJRV2EMPzLfyQWbbV86zW2bOsgX/WWt9Rs60pfOnuBeAECITXfKlayGE6G7k1TIUQojuisRQCCEcEkMhhHBIDIUQwiExFEIIh8RQCCEcEkMhhHBIDIUQwiExFEIIh8RQCCEcEkMhhHBIDIUQwiExFEIIh8RQCCEcEkMhhHBIDIUQwiExFEIIh8RQCCEcEkMhhHBIDIUQwiExFEIIh8RQCCEcEkMhhHBIDIUQwiExFEIIh8RQCCEcEkMhhHBIDIUQwiExFEIIh8RQCCEcXSqG9Zsrbe6kETZgwGRbsjVa2Qp7d1TZklun2ZVjhro8A9w0wsZNnWWLHq21vVGaTPh8d86wyVeMsaE+3wAbOuZKmzxjgVVuro9SCSF6Mr0++uijP0Xz+WFvg9WsrbTEsiVWuSEIUanNfmypTRkYLWag/vG5NrUiYTV7ohUpFFjJ5H+xZbeVubk4dVZ15y12+9Jqa1nyCm30LYvtvm+XRMtCiJ5IHsWwxpY4K27J2toMwtSGGG5Z5Ky6BVbtFwqtdEK5lY0qtL0bVtqSB4PQFVjpLQ/Z0m8X+6UkVTZ3wAxLMFtYYmWXDLET+rDwvtU+vtKqGwsy2Gb+/CGbfl60KIToceTRTa6zukYhdJbc5WVOArOhzhI/DELoBO/mxbb0X6db+eUTbcr3ltqqeyZakd/WYNU/q7Q1+/xCE31LbPzNS239r1bYwu9VWMVtTPNt6VMrbObwKI1tssrHk0cQQvRM8hszLBpsZZNn28LH1tuKBVda3IZrkc2P2CO/jOYvmGKzp6a6swWXTrHyIGo7K23tk9G8p9gmLnnI5k8ttcLe0apAnxIrv2p8tOAkt6bGya4QoqeSRzEss4qnHrKFt02xsoHeV82Kuuc3OLstScnIUmse2Su20pGDo/kGW/Ni3MIrtpLzWj5WwRFHR3MOZ1G21ggjhDiw6fZda2pebxK3c84MopdKSf9zojknnjszxSQz0/Dx+9Gc47RTs7NUNyVszpw5lnAK/eHmx+ze78/xy3O+t8D+c/OHyTRvb7T//Mn3k+vd9P0lq21rtClOvct/3/y7GtPdMe9H9sBLGVuIhBA5ppuLYa3t2hHN2mArOj2aTef0oqb4Y8NeZx9mQ61VPrwymjcbf2FjADErPqlJ2D2P7bDCCy+zsSMGWt/P99jLlYtsxeaNlvj35bbjsPNt7OVjbWTxkfbhznWWWLrW4jK3u+pH9qPKZ6z+0P42suwyu2z0MOt3aL3t3v1plEIIkU+6uRjutb2fR7N2mPVJj/tlYne9vRXNtkyDbfrhXFu0IVrsP8Umjk/tlNMWu377uY27/gb7m0uG2chx5TZz0lBzsmcvVC63P5z7d/a/vuWE8OKRNvZb023saS7DGxvt2d3JvGY77NmNzn49Zph9+/pv2tivDLNhl1xm02bNsWkj+kZphBD5pJuLYZ3VPx/NZsvOvfZBNJuZBlvz/ak2dWF10oLsO9hm3j3bSrMR2hiHDfqaDTkyWoDi8+zMI5g51Vl6/f2qJEfa0LNPdf/3WP0byTWNfPaJffBFNO852I4sOCyaF0Lkk24uhoc6sYpms+XsAiuMZpuxt8YS37napt23KRLCEiv/3mKbfoHf2i5OPiUueHC4HYaOHXOy9U/Ts8MOPzyaC/S3iy9wpfz4ZUv8MGGrX9ptn6aIohAi33RzMTzVis6MZrPl6IK0X6FE7Fxpt0ycZHMfr00uF4622Usesoqy9rnHgYNbunIHHRzNtE6/cdfZDZeXWN+Pt9q6h++1u+5YYIlfbnWOthCiK+jmYlhgfRq16lWra6kj4Ot1UadsR6ZW4S1LbNr/mGWVW5JNK4WXzLSlK+6zKa10u8k9B1vhxd+0mbfOsRuuGmkDC/bY1jUJu6eyJtouhMgn3VwMC634tOTvS4j11e6IrLo0an/XtL709DQpdEI4+VvzbI3vb8NvmBfaikXTrbRFXzrfOFE8f6yV33idDTvW7NNXN9rL0RYhRP7o5mLoxO2C0Y1ub/Vz1Rl+JeKsQrc+yWAbPiwuhrW25O5FVu37tBRY6YzF/mMOzX6Nknc+tA/T+/8c1NeOOcr9P/gwJ49CiHzT7cXQvj7KJtI1BX65xBY9nqoiDY8vsiXh53qXXGFXxD+2wNdx1kXph0+3ihsHZ44n5p2ttvzf5tj3f/KArf71M/bMs0/aY/fdY6t3Olv4wpEZfmUjhMg13V8Me4+26dePj0Ssziq/M84m37rEKh+ttCW3TrZx36lMWot9S232jeXRRxuSVD+zusmS/HSjJe6ca3NbnBbZmvSuLznjy1Zyfj875J0aW1f1mD326Fp76YOjbNDlN9h14/pFaYQQ+ST/3zNsJPZ5rTa/Z0gn6eub+gam47vILGvWMlxVMcBm3B8ttEnb31QUQhy4dH/L0FNgg29caquWVdjEUSVWFPU9LCgqsdHXzLaFD3S8i4wQQkAXWoZCCNF9+DOxDIUQIrdIDIUQwiExFEIIh8RQCCEcEkMhhHBIDIUQwiExFEIIh8RQCCEcEkMhhHBIDIUQwiExFEIIh8RQCCEcEkMhhHBIDIUQwiExFDlkt63+4RybM8dNP1ztlkS2bFzmrtmyjdFS96O7l68j5EcMq+bagAEDmk1zq6Ltf27UV9uifxxhAyraOIFs03n48nfza5R+nRpeTNjcGZNt3Iho+4hxNu3WhG3yg17F2LPJlvzzlTbCp7nSZi2OBs6P0bB8lg2duMA27YtWdCoI4b227rgJdscdd9gdN461Hj+gwe7VtsC9GBKbouUcsXvVguQLKG3K9XH/3MmjZchn9bfZtm3JadXNpZaYkUtBTIpLp+5/X71VL73Frr5ssi34pR97NDPZpovzxlv2Fv/7FlnJeSUpU5/Y8M71z1fZ6u1mxZeUW/k1ZVZitbbmwbl29T/ERa3OErdOtXmvD7HvPrLKHrq+2Grunmq3PxqTwz1VNu/HNTbxxpk2OBejBe5+2WreNRt47pBohciIF8gFtrrTzeaBNoGXUJj+aqBt/a85tmBVOw+Us/J1P7rMTS6eWmGzh5sl1uVMDTuXnQmb8dURNvnOSic/rQwxkG26dBr22gf8P7Pc5v98ha2ITbNH+RSe4mvvs6dWL7WF36uwiu8ttBWPLUyOHvjiJtsYho/eudqq3GUtn1Zh488utsHXzrCJwxts5XMbogRm1ffNt42jZtv0kdEKkXv6jbWZTpjKB0fL+WRwuU0Y4N6Br72scEULKGaYLXv3mp1SZtMXrLJl/3BOtDID2aZrif6nWtow+Kkc0cdihqK3JIvCgPhhgyuC2TlWdLpfchTbqf2jWXhxgS2oGmKzrm8ak1oc+Aw5d6DZu/USwxbowvHKa63OGSqlo5pX/fRR7coXbrOKsmjBEx9ZL+LahbZtbjJRSn7nivt0jdtrbcmkcTavyUiy0ptX2dKprUqQ8zqm2MLKKX62drH/l5ls06Xzep2FofCz5mOX5/6F9sjzWIzlTeNLe3ZZPU+9H+2v1nbtMCsYeKhz4Wts0Q8SVnT9U1YWDazVPqJYoHOBGxkwwe6Y1OQOE1xfvi05v8e5ZnP+yxXjrzJbRMS37l1f6Fy6cktxqDclXL56G3ndTBsbgo1+3dZoAXAF4/k2WmLOcmtKkXm7ubKUvBKVsbHs6XlbLnPGsoXrYiPtunh81Ke1ZDlwOe9dZ4V+v6nXcd29c1xe924bcZ3NjA8XG+UJIeFm2zuIv0fvpJXVk7wO9SMmWslrlZ1Uvrafmfi9+fqbPBONe0y7zrmjyyzDqgonZsNnW0WKCCFUTsh2zLZVUWxx28LyZrHF2sVO3pxAhvjjtsdmW+n9M2zy4qSfWDaX9Qut3M0jpD5NXAj7O2GM5W1DBvOLOw/fMHLxGLt6xgJbucObeSkg9j7N+WNs8n/U25DbHrJlc8qarLyBo23U8Dqr/OkCq95RbzUPL7TKDcU28ZLRVrt0niUKZtqsCR2wCX38KNYo4qcJNnDb8pTW4iGT3PrrRrrHOCkopNtv17BRgMJx7/BuXyO+bFTi62Lbt9ryOQlXzVKpX7vAas6N9hMTwnheYmwtMrjEyeweq3kpbmPttnoq+7s19nJs9cZXnLwOKEkVek8/G3ujO46/TlT45HFThITr+qDZN2Nl2rP+3g43hPiyHFvoxS9pJaaWFXavWuteCANt1LjzOqd8WT4zAeKaD9g3G9NOGLDHCXHze5gL8iiG1TbvsqgSu2nG/aU2+7YpqUJUlXAWW9r6sgpbeK1ZYtkSJ2VJiqcuTbUUnTVW7tJU7wopWiJpjZaPjGV2eVMFuWto+HivlZZNtPLJ5TZ+VIkVH1xnm6oW2axvTrMlcXPFUVRS3piuaO8mq7xzht30wzWx1uJimzL/PvcyeMSuHzvCJv34bSu9Z7HNPi1hbrVN+Z8TrWHpLLvSt0gPtTF/t8DWpLdGZ2DjE84CaPZGH2LlVJh319mTOWyt3P1mvavIJTYoVheHTGqy+nzZjh1p34xV1iGTXKVzVXttWqPBnuNGpYrz7nqrdxWegf0bGeyucYsCPsRK0uNvm2ps67EDbeCxe6z+jWidq8I1zvrseCOSs2zjltvgr9vIY51gvNJ+acACX77Nido10f78vpzQPBHf1257+TX3IGQU70y0Xb52PzMubVxwh3wDMd5qNXloCe+y1uRtj42ytYhjrNtJ1Tpn8Tl3L30g9+JTS8021DWKYZKkFdkkrm7Vjl1padIptiIabWZMbiYwXU3BhLts6cK7rOK2Cpu/eIWtemqFzRzprLc91ZZYnupAl1xT0ZjuqdUP2fTh9Vb9f25KbS0uHG0z/99T9oK71i885V4elxbYyv+9wD6YPNsmvj7PZtxZY8U3rbD1j8y2wbsX2U0VlU4QWqOVit1vkJV0sJJmS78TC50ls87uzdi3LSrbqHSXr58VunLt8fGCJvoWpqayfoVW6Cy99lgg6fE3rK6+Z33dSo6LXYdIZAtPSi62m2ai5M7H7d/eySbuh1Xc1K0mGYqIu5v9bNBZznbfVtN0zr4HgBPMb2Qp3m2Wr/3PTLO0/t44a/7Nts94f+m6BhRnkS11LrDdn4iEKRnXanQTY9O4u1PFIOkmjrO1o1Y1iivWY9s4i2kZaZus1OBadzv6lNj0a6/ws3Wba1oW+b6DrfxSLN3U1uJ0Gh6fZ/NfL7eZ00psw9MJqysrt+9eVWKFZ0+0736rzG2vtg3pHRHj+IrdhThLzbtsuFe+gseEKyobLlao/MkpLU4VUXhimhhiqdxxnbNqmgSkTVfUu8rBYqHSJy1LL5KRwOx+qcZZq6nWbP5I61qTHpN19Du/JMXq6vTydvUz0066tjX59CJnLwaiFk8aOoL1mDJVmHduq+YmXWxnZbbZ6NECyZiim5wYV989LstO0V3AviheWNCn1VbfPkektC83Z1+1LfrhRht93RQb3Nu9dHa6dcef4N+4UOjmzd62txrduwxEb+jOxlt82RJ1TbmjUbii/m9R2UJ8stmU4qK1RBTDc+mvG+Ekos0+eUmr01s23kWORMSLpBOB3UmXs+9Zg1zKboq7nqOcu5+0znJQ3hw9M7mia8UwrQXVu8P3V1v7panKqmOtz1lTVuE7f7ftXueeuh21yR4xgb01tujB1X52cMmQ6KGqtpUPp6XjlyYPr3QzBTb+ouHJdWls+pETjYtm2cxLkNRCOwG37eO9jTHG+rffchamexm1+m6JVf509ruDNeIRzUb4YH+LIFzEA0N8rpWydYB+42Ym++SlFyqFyM10LuFq7yIHEaEsNK68bPXO5UyJQ3ZDGi3ZTU86K5qGk84sby6fmc6n68Rw6xKbPCM1Rlg8tdzKLWEzJjU1lnicNdjYmuytyWpb+3RTCt8yHc03EcUHUzp1V9ncFCuw1tasdXLcVt++zqZhjc29YqgNGDHNElGdr/mPcTZizNU241Z3rv88zcaNudIWrGuwgpGz7fZ/Kkkmsg9s4+xxNmbsNJt1Z5TusqttkfOOCy+ZblMvzWA/bllkC+4vslk3hdbmAhs1crwVLF9otz9cY/VbKu1f/qPKiv+mzMpa/SWKE6BrIjc1JW630RJ0rRgwoWMtxlHL7Don/I3SsynR2DUnsHtVIvVXEFhjjfE4V7ZRVOrlzay5jcuyiAPuXm2JlHzJWFez2GIa3s18t8Zq3omLXlIk97zmrm02LmcUr0xtmc4jkbu/dq1zaDM1nOxX+XL0zOSIPIphamvygMvmWTHdXqK+gUnKrGLbKptt82xcSMe0rMjKQ7Io1ujd22h79chMMcNimzKJmGQUgwwimBKTjLrZpJShaygqLrNzDq2zqgcTlli+xhqOKrWyf5pvD/1kipU0itRwu+K2iXZOn+22dinpNtre40fbxNuW2opF8XSBWltyd8KOunGWjY/1KSyYcLstvrHYan5wpY341iKrG1Rh829qCli0iHdTo24RjXG5qEtKVq5oJppaFu8N+3ylJEPXlnrf163xuOn9/KKYoq2/tymNm9YWfr15Bc9AfUq+5Dk17y+Xhm8E2OOkIlX0kiLp1h+X7MbSOkPs684tp0sKx273z+X2m+j4rryZrbT9LF9Onpnc0Oujjz76UzQvhOiB+I7vr5Vk6IDds+jamKEQoovZaE+u7+YNPXlCYihED6bpFyc9XQrlJgvRI0n+JpyfHaX/frvnIjEUQgiH3GQhhHBIDIUQwiExFEIIh8RQCCEcEkMhhHBIDIUQwiExFEIIx0G9evWKZoUQoudykCOaFUKInovEUAghHAf17t3qFz2FEKJH4C3Dgw/uwrHkhRCiG+B9ZImhEKKn48UQ6/DQQw/1K4QQoifS2HqCdXjIIYdES0II0bNIaUpGDGUhCiF6Ir3+5IjmG/niiy/s888/95MQQvQEMophAFHct2+f/8/USlIhhPizplUxFEKInoJ+fiKEEA6JoRBCOCSGQgjhkBgKIYRDYiiEEA6JoRBCOCSGQgjhkBgKIYRDYiiEEA6JoRBCOCSGQgjhkBgKIYRDYiiEEA6JoRBCOCSGQgjhkBgKIYRDYiiEEA6JoRBCOCSGQgjhkBgKIYRDYiiEEA6JoRBCOCSGQgjhkBgKIYRDYiiEEA6JoRBCOCSGQgjhkBgKIYRDYiiEEA6JoRBCOCSGQgjhkBgKIYRDYiiEEA6JoRBCOCSGQgjhkBgKIYRDYiiEEA6JoRBCOCSGQgjhkBgKIYRDYiiEEI4uEcPly5fbm2++6ed/8Ytf+AlYx7YPP/zQLwshRL7IuxgieIhdEMOPPvrITxC2hWUhhMgXvf7kiOZzzo4dO+zll1/2gnfkkUfal770JS+AYR4RZNuJJ55oxcXF1r9//yinEELklryJIUK4fv16L3xtEdzkv/zLv/TC2BYff/yxPf300/b222/bRRddZGeeeWa0pWUoz3PPPWdHH320fe1rX7Mjjjgi2iKE6InkXAyD24tFiBVYXl4ebWkZ8hA7RAgHDRrkrcbWRDQuhqeccoqNHDnSDj300Ghrcz777DNbt26d/f73v7fjjz9eYiiEyH3M8IknnvANJMEdDiB4WGfxKcQRQzqWycs+sgHxfO+99+ytt96K1mSG7Q0NDd4qFEIIyLkYYtkxxYUQ4cPyw22OT0E0A+Qhb2lpabSmdfr06ePz1NXV2RdffBGtTYX1bC8oKLBjjz02WiuE6On0vt0RzeeEvn37eott165d9sc//tHOOuss27Nnj18OQkljCSKGEJ500kk+D241/0eMGJEipJlgvzt37rSjjjrK5/nd735nxx13XMZ8WIVbtmzxjTPk++STT+y0006zQw45JEph9vnnn9u2bdvs2WeftWeeecbPY0kec8wxKe53TU2NF3FE9Q9/+INVV1f7PJwHYhsaiFjH9Jvf/Mb27t3rXfPevXtHe2nijTfesOeff95eeOEF27hxo/32t7/1IQCOGy8f65588kl79913/fkS+6QcnAvH+eCDD3y4IB1eAlVVVf7YlEEI0UTOLUMEIt6vMA4iGaZMwkWskbzsI1sQgYMPPtjHAzPB+sMOO8yLAeKRDpbjiy++aK+88opPQ/wRsUZEERyEJp3t27d7cUfoS0pKfAgAgcICRtgQMxp2CgsL7dVXX/X7jsMxWbd27Vovluecc45/CZxwwgl+37/61a8yHpd8L730kj8Own744Yf7MiOSmboncQ4IdL9+/aI1QohAzsWQytdRQqty+J8NCA+ig/hizcVhOVifWJGZQHyw8r7yla/YxRdfbF/+8pftggsusOHDh3vxxEqMg0ghRKQ/44wzbMiQIXb++ef79QgiAsk6LFH2d/LJJ/syxMUKixCrEdGlBZ08pCc8wERaRDTd9cfCZt0VV1zhG6bOPfdcL6Dvv/++vfPOO1GqJOwDMcRixmoVQqSSl5jhhAkTvPWXDqKQ3ngShzzkRSCy5aCDDvIC9umnn9ru3bujtUlwE3GBcYt79eoVrW2CVmYsR8Qyvby4wggJgkq6OKeeemqK+4x1htgiynF3NVikWH/BKkXMcOtpzR44cKAvfxzyY8lh7aW/FDiXs88+O0XcSMsyAhsHIUQQEWMhRHNyLoaIHPG/uCUUrEXWh8aT2tpavy5uSZKHNIhle0C0EB0svCBcxNkQOgQK6zETHI9p69atlkgkUqYHHnjAXn/9dS+yiFAA0Uu3MnHTETXOhUadOGyLgzBiRbKPTN172A/lpfzpYojopR+bcANxxLirjOByHxB0LEchRHNyLoa0ECNo8YqM1YW1R1wsPqV3siYPeZnaA4JTVFTkBSFYh4gBVh3r062vwL59+/w0YMAA7/ZmmnBF0/swZrIyoaX1cejmyTHZZ7pQBhDJdBEGYoTxhhXg3DhHhBBrELiOXAteEK31vxSiJ5NzMQxubhC5IIosExeLT5nSkJd9tBdcXfoR4oIiJLjIbVlGiBcTgnL66adnnBCalkSro3BMLNh0sQtgPSKI2QpZiAvyAsAqpDM6gpuphVkIkSTnYojbhqgRO0TkaB1Od0HTJ9IADQpBINsLVhOxPIQANxvLiFhha4KC4JAPtxUBygeUB3eaY+IKp4OY0RhCuTK50ZkgLS8DGlhoTCFcgFXYUnhACJEHMQxQ4XGFg7gFkQwwH7rX8J+0WIv7A40JNFrQHxAhQSBaAxFBNOrr6xtjmHGwLhGYzgQrE9EOsUrELw5xTlx9yt6eVmAsYKxNLGN+lUP+lsIDQog8iiECh7hhIQLzuMCsZ2I+iB/dSfZXCAHxQGRxkxGDbCwrusfgZm7evNn/3pmuNogUnZzpCI272dkghrSAI8DEWF977TVvzW7YsMF3oqY89D1sD+QhLECjD404HbWwhegp5N1UCK3FoXLyPz6PMMZblPcX4mRYe9nGy2id5cMNdHPBCkSQEEZ+tUE/QfbV2WCx0Rdx2LBh/jihlR3XngYbrOT2NnxgcfICwP1GGLN1sYXoqeT1e4Yiv9CRmxBBPDwhhMiMgkgHKMQLaTjBVWYSQrSOxPAABSHEzSYemd4XUQjRHLnJBxB0zaERhn6L/Mci5DfVEkMh2kaW4QEGFiGxQhpP+FKOhFCI7JBlKIQQDlmGQgjhkBgKIYRDYiiEEA6JoRBCOCSGQgjhkBgKIYRDYiiEEA6JoRBCOCSGQgjhkBgKIYRDYiiEEA6JoRBCOCSGQgjhkBgKIYRDYiiEEA6JoRBCOCSGQgjhkBgKIYRDYiiEEA6JoRBCOCSGQgjhkBgKIYRDYiiEEA6JoRBCOCSGQgjh6PUnRzSfU/74xz/arl27bOfOnfbee+/ZRx99ZIcccogdddRRdvLJJ9tZZ51lhx12WJQ6M+TbunWr7d692z744AM79NBD7fjjj7fi4mL7i7/4C+vVq1eUsmN89tlnfv/btm2zU045xS6++OJoS+u88847Ps+bb77pywWcV2FhoZ133nl+XgjRvcmbGD777LNeaFrimGOOsWHDhnkBycTrr79umzZt8iKaDqJ6xhln2ODBg+2gg9pv7CJg27dv98cI+x84cGCbYojAv/zyyz4v8+kggiNHjvSCLYTo3uRVDLHoTjrpJDvuuOP8urfeesuv++STT/wy2xCPww8/3C8HSFddXd1oDZ566ql2wgkn2Ntvv+0tTSw6BHHQoEF29tlnR7naBvHbvHmzvf/++9GaJtoSwy+++MI2btxor732ml+mzAh5ED6sWCb2kY0Ych5ciz59+lhJSYn/3xqc85YtW/y169evn5122mnRFvNl4thxeEnwwsGCbssCF6Inkjcx/P3vf+/FAjGLExc6KumIESO82xz4/PPP/XbEAsHD7UQsAgja888/b59++qmdeOKJXkyPOOKIaGvr1NTUeEGDgoICb8lRTmhLDBEirEIsQsp70UUXZXSHubzZuO9BDOH000/3L4bWeOONN/y5QyYxbGho8OcULOWPP/7YXyNElheGBFGIVPLWgEIMLl0IAasJKw+orIhfHOJxWIBAOtzhOOw3uNbvvvtuY9psQKQQMgT40ksv9WKaDQgNQoQQcuyWhBDaE8fs3bu3F3zOYd++fdHa5rCNNKRvKSzAti9/+cte1JkuuOACL5p79+5t1zUSoqfQ5a3JVOZQobFWDj74YD8f2LNnT2McD/c6XVARj+CGIk7tqehYSJdccon179/f7ydbsOAQacCK68wGki996UveigsNMZlgG2n69u3bLrElPSLZmtAK0VPpcjEkXheE5eijj/ZxrThYYQG2ZyIuRohEunXZmbDv+vp6P09Zg1XbWQTBQnAzRTBYxzbEu6Xr0RJcG2KdCK4QIpUuE0OsOOJkGzZs8O4tDRC4c/F4H2lC4wqC11IskPVBELF6chkGpeEiWKrE37BUa2trbdWqVfbggw/6ifnf/OY3HRJlrGNifR9++GHGlnPWsS28NLKx8hBALOY//OEPXmyPPfbYaIsQIpBXMaTBIpFI+AnR+NWvfuVbPYn74a7GGwEAUYsLWzYuIWKVS8swNEQALj2t0TTwIDaId3DVn3vuOVu/fr0vT3vgHIlDct7BAo3DupCmNSgHXZF42dCSj2AjoMRcW4ozCtGT6fJaEWKAxAbTRYzlIDzZkmvLMA4tz/QxJGZJt57hw4f7rivhnH73u9/Zq6++6ufbA+4vli4vCho8AlwLrhPbjzzyyGhtZhA8xA8rkAnrmZZ7WsCDtS2EaCKvYkhr5le+8hXfekv3GFpysWAQFaworJh0S6o9DQSAEBFzyxeIH1YtYojV9bWvfc2GDh3a2CBDF5h43DMbguXHtUD8AlicvCDasgohvTWZLkn8yofrvWPHDjWiCJFGXsWQeBWtr7TeDhkyxIsIXVpCv0K6qxBrCyAo7e0Phwjkyw2kIeLMM89s1sJdVFTUKFghxtdesP6Io+IWI4CIGLHVeHy0vWApMmEZyjoUIpUud5Op2HRxCY0jVP7gGmIhBSsPF7EllzneFQXxbE83mfZCmYK1ilhlEiYaVkKLLWXuSAyTc8C95dxwl2l1R8BwyffH8kW4CSPQqCKEaKLLxRAQlPATPFzD4MLRQBFEEsuoJXczbnl11GrKFsoZfiqHoHRE6LIF6xLxItbHhNDvb0sw1xcxVyOKEKl0ixqBmAW3LT3mhyUULD36I6aLD8uhnyLWWPjdc65AkEL/PqzRcOw4WHNBuBHnIOjtBdHFreU47C9Tp/P2gIXJhKCHl48QIklexBDByCQagHAQJ+Q/UPmD5QWIYbCG+ERWXV2dnw+wzHogbVwMEdk1a9bYww8/3PhBhf0Fi4qYIKKItcqnu+IfesAF/e1vf+vje0DZOaeOgnXIMYPbnC1Y15SDLwUx0QWIa8C++NDF/rjaQhyI9L7dEc3nDFpBn376ad/plwYFrEDWUTnpCxeEkl9znH/++SliiAjg1tEqi4vHf0SOeSo5fReJMWKtkTfuJrN/xArrEbFFWFqziIhXho8lIKr0f8wE3Vo4D8rNf/JgcVE2jhl+t4ylSpnoRN0WCCr7QtDTzx+rkHKnf7yBc6K1mXOOCy7XlmtMvJL/TIgjDVgDBgzQL1CEyEBevlpDfzvEsDX4SMKFF17oK2w6xObor4fwITLpULlpnU7vtE2fOiZALPiiTab9B+JfsaE7SmtfrUGM6cwcvhyTDmXi+4q0ngshuj95sQwRBqyj0IKJkADrEUG+qMLUUmwNy5B0WE3kRRCx9rCIEBtENNMnr9g/ViTp6WOHe9ga2VqGgJvJ/rBIKRNTsL7o34eQdvbvloUQuSNv3zMUQojujPpXCCGEQ2IohBAOiaEQQjgkhkII4ZAYCiGEQ2IohBAOiaEQQjgkhkII4ZAYCiGEQ2IohBAOiaEQQjgkhkII4ZAYCiGEQ2IohBAOfcJLtBu+Jbllyxb/ZW6+GcnohgzeJdomDD/B9zW7I929fLmkS790zYDrDML+5wCf0l+3bl3jkKQBPjDLF7T58GwmwjgpfBGbcVH4fD8fqj333HObjY3Ch2hfeeUVP6g+gsMHZs855xw/+H6AT/2/9NJLtmvXLj88AF/kZuzm+Gh3DBK/c+dOKy0tbfe4020RhJDhCHpihckEwzIwjg8fGm5rgP/9ERvuafj4cJzi4uI2j5stPVkM8+YmIxrjxo2z8vJyP/GZfgQSocwFiMaqVas6bf/hC9tYQohUmFhubdjNF1980Q/GRBoGz2d0O4SRIQPiwsr8+vXr/QPPfvlyN+L5/PPP+2FCASFizBhEc/To0V4EESbyBNhPbW2t39bZQghcV8ZWoYyiZRDIF154oXGUxM6ClxDDSQwfPtxPCCH3O/4MZEOuyvfnTJfFDBmYiM/mM4jSnwMIESLAUACXXnpp4/SNb3yj1VHrsN6++tWv+hfBiBEjbOzYsf68Ebj4uW/fvt2vw+VE6EaNGuWtQgaKwtJjyATmEUiEjiEFqAiIEsMVBNgP5ck0DILIDQxpcdFFF3WaddYeOCYeBqLGMyo6jhpQ2gkj47UH3OGTTz45WkqOCx0qTRjcKowWyEMdH6eFeYSNEfCwyIhoxAfWx0qIj/aHuCKWuM6tWaviwIIXYhiDR3ScvAwIhUVDRSU+GCoyw3ti3iMM6W9UXMinnnqqcXQ7RCIM3A4Iw5NPPmkbNmxoTBOsNiD/r3/9a58O9yG+HQFiG1PIi8C09VYnjke8hvhdW2njMJhVOsT7sOYoD7HGYP0htFh7oTEiDJHKeQRBJS95sEY4F8ZGDgKLS84IgR2xCrEqGIGQ/TEWNRPueDwWSjyJ4yPKCDRpsHwJFaTDdef+UlHjjSucN6MQEjYJQ6KyjlBCOC7jYMfz8awQJyXk0dp2Xg6UD+s4lD09b2tlzlS2cF2w2jlmeMmQluvBOu4PzxH3gXykZ1hcrHnScUyEiueYlx6QljyUN769NXhOOBZeQfyaso5trOfceU7jZYVwHfjP8TqjfNk8M/F7w765ZqSjjPHr3B3oMjEk9gWMihcGNA9CxUXGBSU2wg0gtsj/IIg0SCAkuJ+DBg3yQsFDzM1FFNh2xhln+BvNyHmkC0JIXA5riv2HvNwwHp7WYF/cQCYeEio6ramIEg9OtlCpiPMRz8MlpixYczxQ7ItrFK4H58ODw7EpJw8Z+REirgUPNA8rwW7KhXVQUlLSbqsQF4uGG8rC/WCQfK4jLwDGhg4VK4gw5SX+ibueSVSgtYrLGNPsi4rAuRFD5VrwIuDYvLg4DvkoG/eW8mBls511lI1ykYaKynWhItI4RbmCEHJezIe8ofJlKjf7ojyca6j4PDNcW/5zzUN+rjv3nRcPx+E6kYcKThkoP+fJveG8wv4QBNZzHc477zx/v9knYs3/lq4ntHRNKQsvTtbzn2PEywpcL/JSFp6l/S1fts9MuDfsl2sT7gOxbTQh3MPuQN58KU6eBo1EIuEnHjBiYrwxAqzjRsTXczNw+xALHkigwrM+wMOOxUZlaA3y45LGLSfysv+2QJiCAJCfZd5y1dXVbR43gIjxEggPZYg1sq9wbq3BNaHhCaqqqnwLJoPUI6yIJnFYRHrFihX24IMP2tq1a7MqG6LKgxpvQeTBZ38IE+XOFVwLyh8fJpbrHCoyZWM7L7MAQ7EClSkO6aiQAUQK4mNlsz2eJk6o7PH4G/O8nLj2YX/850XY1gu0JdgXz1wQAcrHcRGR9oIFTt3CI2B/7IvrwHULcC6cB8cI17U1silfe58ZxDY+rjmCzHNPuboLeRNDLly8NZnuKHRVwaUN8HAjaghUHNxHRCwuGMxT2YO4bt26tVmadLjJvMkQJN5U7YE3Gg0gBMppNGHiTYzLhoi3BQ8P54vYI6jxh6gtKHew9riONK5cc801dvnll/uXAqLIw4WwYHXyshgzZox/KLFiQ8XORGsVG4GiYnWkkmYLx+D4uHfphLLx8olbD4gTVhn3Ow73Nk6o+HgSQcjagusQj79x7kFgwnUI+8pGWDKRLkqcG/eYZ7e1ewWk4fklRMTEc4yHg6UH7It5rlsoJ88F58Qzkg1tla8jz0x6WvbPM03Zugt5E8N0EDzcYISEG8qF5uFG1ILAhWnjxo1RriQIKJYPb/ggrtlYd9xQhATBDVYqLlhHwA3B3Ie2LCfcQCxIHqIwYH4QN6ASI3LE4uLdPsMyDxdTJnBf2C+WJi8TriuWE0KNhRVcnpYgL2/oroJ7iHhj3VC56e4RKnEoG9ZuqPxMdDeiMqYTty6BCofljHAGAcENbo0gKlgsHJ8XCmJIZQ4Cw/1mn+nHywc8w/GuNUOHDm0mypQ3bnV1dnm7+pnJFV0mhsDN4SYBNxlRQNSCwMUnrErSU/kRUJapRB3h4osv9vuk0zdCG7dO20MQrrjVkg4WIRWc86QTNFZhOpwXDzSiReULMM86tvO2ToeXBw0viB7WEuk5TigP++Qlg1XQEuEN3dm0p+IhQFjcxHcpP9YsFTmUDaEPlT8+ZWNdcy2IfZGelyDC2lqfvGB1YtlQBpY5F8rIPILIepZbu+9dCWXj5co5BBe5M8ubq2emq+nSMwrmewB3mOB8e01n0pOvveBiEoNry73mLZgeeyOYTbAYEedNnAkeRCofokmFbMlN4SVATIVzIBgeYJ51WHvpLiDg/nHNsFBDJca9C29t3uA8uJnyBuKVP50gzpncoWygHJQhTqbjBKisvAypaORrrWwdgZgV1zndvY5DGRAOngesyCAilIWJsnCNW7rn3YVgyeItUMc60sOgJXL5zHQlXSaGuMa4LvEYIT9ngueeey5FnLAGmSBYHLRQBWjVSo8BBkszHmTnRmF1BMIDTzrStwQPP9bdf//3f3srktbtJ554wpcBqyUEhhFM1j/66KP+QcH1QzTJTxkff/zxlAm3jTJQ+Wn9xvWmqwKxUCbmcXfZlg7HJl6JpUl+JloxsZoRYLZjNbIuk1UZoKJTfsoafooFiBFii4XRUoNDayAilAkrLMTBuNa47XFo+AnuHDCPiCLilI1KTJ50a45zSxfadNgX+w+QHoFo7eUACB0CwhREL4gk+0QI2rJ8KT/ksvGpNSgrUC/SY4CwP+XL1TPT1eStaw0XiSA5YsTEPK5L3NVFkLjIWER0gQlpqRyk443EQ8iEkITttD5zc6l0dFQOb3EqI24waXhbISyIUsiL2FDZcJtbA8uOSoCVhtggqtxwjhvKBVQeKl8oB+WmEmOJcHz+xyce0lBezonyUVkROdKzjZgQx4qDgNJ3ixbWeCsrYkpZw0/02B/B9VC+luDa8ULC0uWlwznwEkFI04WYBx6hx8JqS2SxWjkX9ss+KRvlRdw4HselMsb7qXGdEfhQmTkG85SL5yKkY12wPnjZIP6cf7xMlJV4bcgXzim8vFqC60W5eH6w5vkP/EdciN9ybQOZrgnnz33ieeHYlJHt4aUdDIAA63leEJFwvHRa6lqTiXB8rjXXPP1e7W/5sn1mWro3YT3PPcftDuirNUIcoPBC5OWirwplx4EXBRVCeGsVaw4LWkKYHRJDIQ5AQqy8MxtODnTkJgtxAIFrTByQ+Ds/FAgNJaJtJIZCCOGQmyyEEA6JoRBCOCSGQgjhkBgKIYRDYiiEEA6JoRBCOCSGQgjhkBgKIYRDYiiEEA6JoRBCOCSGQgjhkBgKIYRDYiiEEA6JoRBCmNn/By0uVkKejsx2AAAAAElFTkSuQmCC;" vertex="1" parent="1">
          <mxGeometry x="111.9" y="483.66999999999996" width="140.19" height="125" as="geometry" />
        </mxCell>
      </root>
    </mxGraphModel>
  </diagram>
</mxfile>
